<?xml version="1.0" encoding="UTF-8"?>
<svg xmlns="http://www.w3.org/2000/svg" xmlns:xlink="http://www.w3.org/1999/xlink" width="512px" height="512px" viewBox="0 0 512 512" version="1.1">
<g id="surface1">
<path style=" stroke:none;fill-rule:nonzero;fill:rgb(98.039216%,42.745098%,38.431373%);fill-opacity:1;" d="M 320 181.332031 C 320 104.75 257.917969 42.667969 181.332031 42.667969 C 104.75 42.667969 42.667969 104.75 42.667969 181.332031 C 42.667969 257.917969 104.75 320 181.332031 320 C 257.917969 320 320 257.917969 320 181.332031 Z M 320 181.332031 "/>
<path style=" stroke:none;fill-rule:nonzero;fill:rgb(98.039216%,42.745098%,38.431373%);fill-opacity:1;" d="M 469.332031 181.332031 C 469.332031 104.75 407.25 42.667969 330.667969 42.667969 C 254.082031 42.667969 192 104.75 192 181.332031 C 192 257.917969 254.082031 320 330.667969 320 C 407.25 320 469.332031 257.917969 469.332031 181.332031 Z M 469.332031 181.332031 "/>
<path style=" stroke:none;fill-rule:nonzero;fill:rgb(89.019608%,92.941177%,94.117647%);fill-opacity:1;" d="M 352 285.214844 L 128 285.214844 L 128 348.652344 C 128 371.285156 136.992188 392.992188 152.992188 408.992188 L 200.835938 456.835938 C 208.835938 464.835938 219.691406 469.332031 231.007812 469.332031 L 280.992188 469.332031 C 292.308594 469.332031 303.164062 464.835938 311.164062 456.835938 L 359.007812 408.992188 C 375.007812 392.992188 384 371.285156 384 348.652344 L 384 285.214844 Z M 352 285.214844 "/>
<path style=" stroke:none;fill-rule:nonzero;fill:rgb(89.019608%,92.941177%,94.117647%);fill-opacity:1;" d="M 368.386719 341.332031 L 143.613281 341.332031 C 123.207031 341.332031 106.667969 324.792969 106.667969 304.386719 C 106.121094 295.375 106.121094 286.34375 106.667969 277.332031 C 110.726562 266.871094 114.1875 256.191406 117.03125 245.335938 C 114.1875 234.480469 110.726562 223.792969 106.667969 213.332031 C 106.234375 206.230469 106.234375 199.105469 106.667969 192 C 106.667969 121.308594 163.972656 64 234.667969 64 L 277.332031 64 C 348.027344 64 405.332031 121.308594 405.332031 192 C 405.765625 199.105469 405.765625 206.230469 405.332031 213.332031 C 401.273438 223.792969 397.8125 234.480469 394.96875 245.335938 C 397.8125 256.191406 401.273438 266.871094 405.332031 277.332031 C 405.878906 286.34375 405.878906 295.375 405.332031 304.386719 C 405.332031 324.792969 388.792969 341.332031 368.386719 341.332031 Z M 368.386719 341.332031 "/>
<path style=" stroke:none;fill-rule:nonzero;fill:rgb(29.411766%,33.725491%,38.039216%);fill-opacity:1;" d="M 245.332031 234.667969 C 245.332031 205.210938 221.457031 181.332031 192 181.332031 C 162.542969 181.332031 138.667969 205.210938 138.667969 234.667969 C 138.667969 264.121094 162.542969 288 192 288 C 221.457031 288 245.332031 264.121094 245.332031 234.667969 Z M 245.332031 234.667969 "/>
<path style=" stroke:none;fill-rule:nonzero;fill:rgb(29.411766%,33.725491%,38.039216%);fill-opacity:1;" d="M 373.332031 234.667969 C 373.332031 205.210938 349.457031 181.332031 320 181.332031 C 290.542969 181.332031 266.667969 205.210938 266.667969 234.667969 C 266.667969 264.121094 290.542969 288 320 288 C 349.457031 288 373.332031 264.121094 373.332031 234.667969 Z M 373.332031 234.667969 "/>
<path style=" stroke:none;fill-rule:nonzero;fill:rgb(100%,100%,100%);fill-opacity:1;" d="M 336 234.667969 C 336 225.832031 328.835938 218.667969 320 218.667969 C 311.164062 218.667969 304 225.832031 304 234.667969 C 304 243.503906 311.164062 250.667969 320 250.667969 C 328.835938 250.667969 336 243.503906 336 234.667969 Z M 336 234.667969 "/>
<path style=" stroke:none;fill-rule:nonzero;fill:rgb(100%,100%,100%);fill-opacity:1;" d="M 208 234.667969 C 208 225.832031 200.835938 218.667969 192 218.667969 C 183.164062 218.667969 176 225.832031 176 234.667969 C 176 243.503906 183.164062 250.667969 192 250.667969 C 200.835938 250.667969 208 243.503906 208 234.667969 Z M 208 234.667969 "/>
<path style=" stroke:none;fill-rule:nonzero;fill:rgb(98.039216%,42.745098%,38.431373%);fill-opacity:1;" d="M 298.667969 405.332031 L 213.332031 405.332031 C 170.667969 405.332031 149.332031 362.667969 149.332031 320 L 362.667969 320 C 362.667969 362.667969 341.332031 405.332031 298.667969 405.332031 Z M 298.667969 405.332031 "/>
<path style=" stroke:none;fill-rule:nonzero;fill:rgb(100%,100%,100%);fill-opacity:1;" d="M 213.332031 362.667969 L 192 320 L 234.667969 320 Z M 213.332031 362.667969 "/>
<path style=" stroke:none;fill-rule:nonzero;fill:rgb(100%,100%,100%);fill-opacity:1;" d="M 256 362.667969 L 234.667969 320 L 277.332031 320 Z M 256 362.667969 "/>
<path style=" stroke:none;fill-rule:nonzero;fill:rgb(100%,100%,100%);fill-opacity:1;" d="M 298.667969 362.667969 L 277.332031 320 L 320 320 Z M 298.667969 362.667969 "/>
<path style=" stroke:none;fill-rule:nonzero;fill:rgb(100%,100%,100%);fill-opacity:1;" d="M 277.332031 384 L 256 405.332031 L 298.667969 405.332031 Z M 277.332031 384 "/>
<path style=" stroke:none;fill-rule:nonzero;fill:rgb(100%,100%,100%);fill-opacity:1;" d="M 234.667969 384 L 213.332031 405.332031 L 256 405.332031 Z M 234.667969 384 "/>
<path style=" stroke:none;fill-rule:nonzero;fill:rgb(29.411766%,33.725491%,38.039216%);fill-opacity:1;" d="M 170.667969 192 L 170.667969 149.332031 C 170.667969 137.550781 180.21875 128 192 128 C 203.78125 128 213.332031 137.550781 213.332031 149.332031 L 213.332031 192 Z M 170.667969 192 "/>
<path style=" stroke:none;fill-rule:nonzero;fill:rgb(29.411766%,33.725491%,38.039216%);fill-opacity:1;" d="M 298.667969 192 L 298.667969 149.332031 C 298.667969 137.550781 308.21875 128 320 128 C 331.78125 128 341.332031 137.550781 341.332031 149.332031 L 341.332031 192 Z M 298.667969 192 "/>
<path style=" stroke:none;fill-rule:nonzero;fill:rgb(98.039216%,42.745098%,38.431373%);fill-opacity:1;" d="M 298.667969 277.332031 C 298.667969 253.769531 279.5625 234.667969 256 234.667969 C 232.4375 234.667969 213.332031 253.769531 213.332031 277.332031 C 213.332031 300.898438 232.4375 320 256 320 C 279.5625 320 298.667969 300.898438 298.667969 277.332031 Z M 298.667969 277.332031 "/>
</g>
</svg>
